<svg width="32" height="32" viewBox="0 0 32 32" fill="none" xmlns="http://www.w3.org/2000/svg">
<path d="M0 1.92C0 0.859613 0.859613 0 1.92 0H30.08C31.1404 0 32 0.859613 32 1.92V30.08C32 31.1404 31.1404 32 30.08 32H1.92C0.859613 32 0 31.1404 0 30.08V1.92Z" fill="#0B1423"/>
<path d="M5.4912 20.736V11.6224H7.3472L10.7392 16.5888H9.9328L13.312 11.6224H15.168V20.736H12.6336V15.8208L13.0048 15.9232L11.1488 18.5856H9.5104L7.6672 15.9232L8.0256 15.8208V20.736H5.4912Z" fill="#F1F5F9"/>
<path d="M18.7523 17.536V15.6928H20.4035C20.5998 15.6928 20.779 15.6544 20.9411 15.5776C21.1118 15.4923 21.2483 15.3685 21.3507 15.2064C21.4531 15.0357 21.5043 14.8267 21.5043 14.5792C21.5043 14.3317 21.4531 14.1269 21.3507 13.9648C21.2483 13.7941 21.1118 13.6704 20.9411 13.5936C20.779 13.5083 20.5998 13.4656 20.4035 13.4656H18.7523V11.6224H20.9027C21.4915 11.6224 22.0206 11.7419 22.4899 11.9808C22.9678 12.2112 23.3432 12.5483 23.6163 12.992C23.8979 13.4272 24.0387 13.9563 24.0387 14.5792C24.0387 15.1936 23.8979 15.7227 23.6163 16.1664C23.3432 16.6101 22.9678 16.9515 22.4899 17.1904C22.0206 17.4208 21.4915 17.536 20.9027 17.536H18.7523ZM16.6787 20.736V11.6224H19.2387V20.736H16.6787Z" fill="#F1F5F9"/>
<path d="M25.2075 20.8896C24.8064 20.8896 24.4736 20.7531 24.2091 20.48C23.9446 20.2069 23.8123 19.8741 23.8123 19.4816C23.8123 19.0805 23.9446 18.7435 24.2091 18.4704C24.4736 18.1973 24.8064 18.0608 25.2075 18.0608C25.6086 18.0608 25.9371 18.1973 26.1931 18.4704C26.4576 18.7435 26.5899 19.0805 26.5899 19.4816C26.5899 19.8741 26.4576 20.2069 26.1931 20.48C25.9371 20.7531 25.6086 20.8896 25.2075 20.8896Z" fill="#22D3EE"/>
</svg>
